<svg width="145" height="4" viewBox="0 0 145 4" fill="none" xmlns="http://www.w3.org/2000/svg">
<path d="M142.702 0.384277H114.008C113.128 0.384277 112.414 1.09838 112.414 1.97928C112.414 2.86017 113.128 3.57428 114.008 3.57428H142.702C143.582 3.57428 144.296 2.86017 144.296 1.97928C144.296 1.09838 143.582 0.384277 142.702 0.384277Z" fill="#F1F3F4"/>
<path d="M105.506 0.384277H76.812C75.9316 0.384277 75.2179 1.09838 75.2179 1.97928C75.2179 2.86017 75.9316 3.57428 76.812 3.57428H105.506C106.387 3.57428 107.1 2.86017 107.1 1.97928C107.1 1.09838 106.387 0.384277 105.506 0.384277Z" fill="#F1F3F4"/>
<path d="M68.3102 0.384277H39.6162C38.7358 0.384277 38.0221 1.09838 38.0221 1.97928C38.0221 2.86017 38.7358 3.57428 39.6162 3.57428H68.3102C69.1906 3.57428 69.9043 2.86017 69.9043 1.97928C69.9043 1.09838 69.1906 0.384277 68.3102 0.384277Z" fill="#33A0FF"/>
<path d="M31.1143 0.384277H2.42028C1.53988 0.384277 0.826172 1.09838 0.826172 1.97928C0.826172 2.86017 1.53988 3.57428 2.42028 3.57428H31.1143C31.9947 3.57428 32.7084 2.86017 32.7084 1.97928C32.7084 1.09838 31.9947 0.384277 31.1143 0.384277Z" fill="#F1F3F4"/>
</svg>
